<svg id="_Layer_" data-name="&lt;Layer&gt;" xmlns="http://www.w3.org/2000/svg" viewBox="0 0 612 272"><defs><style>.cls-1{fill:#482b7e;}</style></defs><title>Artboard 11</title><path class="cls-1" d="M257.33,156.91v5.82a7.77,7.77,0,0,0-2.18-1.78,4.92,4.92,0,0,0-2.32-.57,4.76,4.76,0,0,0-3.72,1.57,5.81,5.81,0,0,0-1.42,4.08,5.5,5.5,0,0,0,1.45,3.9,4.82,4.82,0,0,0,3.69,1.55,4.92,4.92,0,0,0,2.32-.57,7.87,7.87,0,0,0,2.18-1.8v5.83a12.33,12.33,0,0,1-2.51.92,10.45,10.45,0,0,1-2.54.31,10.64,10.64,0,0,1-2.95-.38,8,8,0,0,1-2.49-1.16,9.65,9.65,0,0,1-3.33-3.69,10.72,10.72,0,0,1-1.15-5,11.06,11.06,0,0,1,.72-4.08,10.07,10.07,0,0,1,2.2-3.32,8.9,8.9,0,0,1,3.13-2.13,10,10,0,0,1,3.87-.72,11,11,0,0,1,2.54.31A13,13,0,0,1,257.33,156.91Z"/><path class="cls-1" d="M280.16,166a9.9,9.9,0,0,1-3,7.24,10.65,10.65,0,0,1-11.41,2.22,10.25,10.25,0,0,1-3.36-2.22,9.62,9.62,0,0,1-2.29-3.31,10.34,10.34,0,0,1,0-7.88,9.68,9.68,0,0,1,2.29-3.3,10.58,10.58,0,0,1,14.77,0,10,10,0,0,1,3,7.25Zm-10.43,5.73a4.68,4.68,0,0,0,3.66-1.62,6.5,6.5,0,0,0,0-8.21,4.89,4.89,0,0,0-7.3,0,6.59,6.59,0,0,0,0,8.22A4.68,4.68,0,0,0,269.73,171.69Z"/><path class="cls-1" d="M282.73,175.68V156.15h5.32v15h6.62v4.56Z"/><path class="cls-1" d="M297.05,175.68V156.15h5.32v15H309v4.56Z"/><path class="cls-1" d="M311.36,175.68V156.15h12v4.28h-6.78v3.39h6.39V168h-6.39v3.3h6.78v4.38Z"/><path class="cls-1" d="M335.37,168.49V164.4h10.45c0,.13,0,.27,0,.44s0,.39,0,.7q0,5-2.66,7.83c-1.77,1.84-4.27,2.77-7.49,2.77a11.56,11.56,0,0,1-4.22-.71,9.55,9.55,0,0,1-3.3-2.18,9.91,9.91,0,0,1-2.15-3.31,10.75,10.75,0,0,1-.77-4,10.54,10.54,0,0,1,.75-4,9.93,9.93,0,0,1,5.58-5.46,11.32,11.32,0,0,1,4.11-.74,11,11,0,0,1,5.08,1.14,9.77,9.77,0,0,1,3.71,3.37l-4.61,2.21a5.72,5.72,0,0,0-1.86-1.68,4.88,4.88,0,0,0-2.32-.56,4.68,4.68,0,0,0-3.76,1.6,6.46,6.46,0,0,0-1.38,4.35,6.56,6.56,0,0,0,1.38,4.39,4.68,4.68,0,0,0,3.76,1.6,5.57,5.57,0,0,0,3.38-1,3.85,3.85,0,0,0,1.58-2.65Z"/><path class="cls-1" d="M348.34,175.68V156.15h12v4.28h-6.78v3.39h6.4V168h-6.4v3.3h6.78v4.38Z"/><path class="cls-1" d="M391.59,166a9.94,9.94,0,0,1-3,7.24,10.61,10.61,0,0,1-3.42,2.22,10.42,10.42,0,0,1-4,.78,10.53,10.53,0,0,1-4-.78,10.19,10.19,0,0,1-3.37-2.22,10,10,0,0,1,0-14.49,10.47,10.47,0,0,1,7.38-3,10.56,10.56,0,0,1,7.4,3,9.9,9.9,0,0,1,3,7.25Zm-10.42,5.73a4.7,4.7,0,0,0,3.66-1.62,6,6,0,0,0,1.45-4.11,5.91,5.91,0,0,0-1.47-4.1,4.89,4.89,0,0,0-7.3,0,6.6,6.6,0,0,0,0,8.22A4.71,4.71,0,0,0,381.17,171.69Z"/><path class="cls-1" d="M394.05,175.68V156.15h12v4.28h-6.78v3.39h6.4V168h-6.4v7.68Z"/><path class="cls-1" d="M416.9,175.68V156.15h5.38v19.53Z"/><path class="cls-1" d="M425.81,175.68V156.15H431l7.37,10a10.51,10.51,0,0,1,.7,1.23c.33.62.68,1.35,1.08,2.21-.11-.81-.18-1.53-.23-2.16s-.08-1.2-.08-1.69v-9.64h5.11v19.53h-5.11l-7.37-10.09a10.31,10.31,0,0,1-.72-1.23c-.33-.62-.68-1.34-1.06-2.18.11.82.19,1.54.23,2.17s.08,1.19.08,1.68v9.65Z"/><path class="cls-1" d="M451.68,175.68V160.77H447.3v-4.62h14.08v4.62H457v14.91Z"/><path class="cls-1" d="M463.75,175.68V156.15h12v4.28h-6.78v3.39h6.39V168h-6.39v3.3h6.78v4.38Z"/><path class="cls-1" d="M487.76,168.49V164.4h10.45c0,.13,0,.27,0,.44s0,.39,0,.7c0,3.36-.88,6-2.67,7.83a9.89,9.89,0,0,1-7.48,2.77,11.52,11.52,0,0,1-4.22-.71,9.45,9.45,0,0,1-3.3-2.18,9.79,9.79,0,0,1-2.16-3.31,10.74,10.74,0,0,1-.76-4,10.54,10.54,0,0,1,.74-4,9.89,9.89,0,0,1,5.6-5.46,11.27,11.27,0,0,1,4.1-.74,11,11,0,0,1,5.08,1.14,9.82,9.82,0,0,1,3.7,3.37l-4.61,2.21a5.43,5.43,0,0,0-1.86-1.68,4.81,4.81,0,0,0-2.31-.56,4.69,4.69,0,0,0-3.76,1.6,6.41,6.41,0,0,0-1.38,4.35,6.51,6.51,0,0,0,1.38,4.39,4.69,4.69,0,0,0,3.76,1.6,5.55,5.55,0,0,0,3.38-1,3.81,3.81,0,0,0,1.58-2.65Z"/><path class="cls-1" d="M500.73,175.68V156.15h5.56a22.17,22.17,0,0,1,4.55.31,5.91,5.91,0,0,1,2.23,1,5.33,5.33,0,0,1,1.62,2,6.6,6.6,0,0,1,.56,2.73,5.81,5.81,0,0,1-1.11,3.69,5.42,5.42,0,0,1-3.25,1.89l5.32,7.87h-6L505.72,168v7.65Zm5-10.29h1a4.16,4.16,0,0,0,2.51-.6A2.11,2.11,0,0,0,510,163a2.58,2.58,0,0,0-.74-2.08,3.85,3.85,0,0,0-2.49-.62h-1.06Z"/><path class="cls-1" d="M516.55,175.68l6.73-19.53H530l6.75,19.53h-5.3l-1-3.5h-7.57l-1,3.5Zm7.45-7.3h5.29l-2-6.44c-.06-.19-.15-.51-.26-.94s-.24-1-.4-1.69c-.12.49-.24.94-.35,1.38s-.22.85-.34,1.25Z"/><path class="cls-1" d="M540.61,175.68V160.77h-4.38v-4.62h14.08v4.62h-4.38v14.91Z"/><path class="cls-1" d="M552.69,175.68V156.15h12v4.28h-6.78v3.39h6.39V168h-6.39v3.3h6.78v4.38Z"/><path class="cls-1" d="M568,175.68V156.15H572a33.59,33.59,0,0,1,6.44.43,9.33,9.33,0,0,1,3.31,1.42,8.27,8.27,0,0,1,2.81,3.32,11.55,11.55,0,0,1,0,9.22,8.31,8.31,0,0,1-2.81,3.31,9.24,9.24,0,0,1-3.23,1.41,27.32,27.32,0,0,1-5.63.42H568Zm5.26-4.38h.9a6.73,6.73,0,0,0,4.57-1.28,5.22,5.22,0,0,0,1.43-4.09,5.29,5.29,0,0,0-1.43-4.11,6.67,6.67,0,0,0-4.57-1.31h-.9Z"/><path class="cls-1" d="M244.05,196.68a9.73,9.73,0,0,0,2.34,2,4.61,4.61,0,0,0,2.3.66,2.63,2.63,0,0,0,1.75-.57,1.83,1.83,0,0,0,.7-1.45,1.87,1.87,0,0,0-.6-1.5,7.31,7.31,0,0,0-2.68-1.09,8.75,8.75,0,0,1-4.06-2,4.71,4.71,0,0,1-1.19-3.4,6,6,0,0,1,1.87-4.57,6.84,6.84,0,0,1,4.87-1.77,10.68,10.68,0,0,1,3.06.44,9.89,9.89,0,0,1,2.74,1.32l-1.67,3.82a7.25,7.25,0,0,0-1.87-1.17,5.05,5.05,0,0,0-1.87-.39,2.49,2.49,0,0,0-1.56.46,1.41,1.41,0,0,0-.61,1.18,1.46,1.46,0,0,0,.53,1.18,5.83,5.83,0,0,0,2,.84l.24.07a9.71,9.71,0,0,1,4.28,1.93,4.79,4.79,0,0,1,1.06,1.72,6.64,6.64,0,0,1,.36,2.23,6.48,6.48,0,0,1-2,5,7.66,7.66,0,0,1-5.44,1.89,9.65,9.65,0,0,1-3.71-.69,10.67,10.67,0,0,1-3.22-2.18Z"/><path class="cls-1" d="M272.3,184.23v5.82a7.52,7.52,0,0,0-2.18-1.79,4.92,4.92,0,0,0-2.33-.56,4.73,4.73,0,0,0-3.71,1.56,5.82,5.82,0,0,0-1.42,4.09,5.47,5.47,0,0,0,1.45,3.89,4.82,4.82,0,0,0,3.68,1.55,4.93,4.93,0,0,0,2.33-.57,7.68,7.68,0,0,0,2.18-1.79v5.82a12.24,12.24,0,0,1-2.52.93,11.36,11.36,0,0,1-2.53.3,10.59,10.59,0,0,1-2.95-.38,8.25,8.25,0,0,1-2.5-1.15,9.91,9.91,0,0,1-3.33-3.7,10.81,10.81,0,0,1-1.14-5,11,11,0,0,1,.72-4.07,10,10,0,0,1,2.2-3.33,8.91,8.91,0,0,1,3.12-2.13,10.27,10.27,0,0,1,3.88-.72,10.81,10.81,0,0,1,2.53.31A12.85,12.85,0,0,1,272.3,184.23Z"/><path class="cls-1" d="M275.22,203V183.47h5.38V203Z"/><path class="cls-1" d="M283.74,203V183.47h12v4.27h-6.78v3.39h6.38v4.19h-6.38v3.3h6.78V203Z"/><path class="cls-1" d="M299,203V183.47h5.13l7.37,10a13.61,13.61,0,0,1,.7,1.23c.33.61.69,1.36,1.08,2.21q-.17-1.22-.24-2.16c0-.64-.07-1.2-.07-1.68v-9.64h5.11V203H313l-7.37-10.08a11,11,0,0,1-.72-1.24c-.32-.62-.68-1.35-1.06-2.18.11.82.18,1.54.23,2.17s.08,1.2.08,1.69V203Z"/><path class="cls-1" d="M335.42,184.23v5.82a7.79,7.79,0,0,0-2.18-1.79,5,5,0,0,0-2.33-.56,4.77,4.77,0,0,0-3.72,1.56,5.87,5.87,0,0,0-1.42,4.09,5.47,5.47,0,0,0,1.45,3.89,4.84,4.84,0,0,0,3.69,1.55,5,5,0,0,0,2.33-.57,8,8,0,0,0,2.18-1.79v5.82a12.68,12.68,0,0,1-2.52.93,11.52,11.52,0,0,1-2.54.3,10.59,10.59,0,0,1-2.95-.38,8,8,0,0,1-2.48-1.15,9.77,9.77,0,0,1-3.34-3.7,10.69,10.69,0,0,1-1.15-5,11,11,0,0,1,.72-4.07,10,10,0,0,1,2.2-3.33,9,9,0,0,1,3.13-2.13,10.18,10.18,0,0,1,3.87-.72,11,11,0,0,1,2.54.31A13.34,13.34,0,0,1,335.42,184.23Z"/><path class="cls-1" d="M338.3,203V183.47h12v4.27h-6.78v3.39h6.39v4.19h-6.39v3.3h6.78V203Z"/><path class="cls-1" d="M376.16,203l-1.72-2a9.21,9.21,0,0,1-2.94,1.91,9.5,9.5,0,0,1-3.45.61,6,6,0,0,1-4.24-1.52,5.1,5.1,0,0,1-1.65-3.93,5.2,5.2,0,0,1,1.08-3.24,10.32,10.32,0,0,1,3.45-2.65,8.57,8.57,0,0,1-1.37-2,4.89,4.89,0,0,1-.44-2,4.1,4.1,0,0,1,1.54-3.27,5.75,5.75,0,0,1,3.87-1.32,6.37,6.37,0,0,1,4.2,1.29,4.35,4.35,0,0,1,1.54,3.51,4.67,4.67,0,0,1-.84,2.64,8.26,8.26,0,0,1-2.5,2.29l2.3,2.4c.45-.38.91-.79,1.36-1.24s.91-.93,1.37-1.47l2.79,2.87c-.46.56-.91,1.07-1.35,1.52a15.26,15.26,0,0,1-1.34,1.24l4.25,4.37Zm-4.39-4.64-3.15-3.45a8.08,8.08,0,0,0-1.34,1.49,2.54,2.54,0,0,0-.43,1.33,1.89,1.89,0,0,0,.6,1.43,2,2,0,0,0,1.48.58,3.06,3.06,0,0,0,1.35-.34A6.24,6.24,0,0,0,371.77,198.35ZM370.4,191l.63-.52a4.72,4.72,0,0,0,1-1.11,2.05,2.05,0,0,0,.35-1.08,1.48,1.48,0,0,0-.46-1.14,1.64,1.64,0,0,0-1.21-.44,1.81,1.81,0,0,0-1.32.46,1.64,1.64,0,0,0-.48,1.26,2.26,2.26,0,0,0,.2.8,3.13,3.13,0,0,0,.51.83Z"/><path class="cls-1" d="M393.31,203V183.47h12v4.27H398.5v3.39h6.39v4.19H398.5v3.3h6.77V203Z"/><path class="cls-1" d="M408.57,203V183.47h5.14l7.37,10a13.61,13.61,0,0,1,.7,1.23c.33.61.68,1.36,1.08,2.21q-.17-1.22-.24-2.16c-.05-.64-.07-1.2-.07-1.68v-9.64h5.11V203h-5.11l-7.37-10.08a11,11,0,0,1-.72-1.24c-.32-.62-.68-1.35-1.07-2.18.12.82.19,1.54.24,2.17s.08,1.2.08,1.69V203Z"/><path class="cls-1" d="M440.27,195.81V191.7h10.46a3.24,3.24,0,0,1,0,.45c0,.15,0,.39,0,.7q0,5-2.66,7.82c-1.77,1.86-4.28,2.79-7.49,2.79a11.56,11.56,0,0,1-4.22-.72,9.43,9.43,0,0,1-3.3-2.17,9.93,9.93,0,0,1-2.16-3.32,11.12,11.12,0,0,1,0-8,10,10,0,0,1,2.23-3.31,10.15,10.15,0,0,1,3.37-2.15,11.26,11.26,0,0,1,4.1-.73,11.08,11.08,0,0,1,5.08,1.13,9.93,9.93,0,0,1,3.71,3.37l-4.62,2.22a5.63,5.63,0,0,0-1.85-1.69,4.85,4.85,0,0,0-2.32-.56,4.7,4.7,0,0,0-3.76,1.6,6.42,6.42,0,0,0-1.38,4.36,6.5,6.5,0,0,0,1.38,4.38,4.67,4.67,0,0,0,3.76,1.61,5.57,5.57,0,0,0,3.38-1,3.86,3.86,0,0,0,1.59-2.64Z"/><path class="cls-1" d="M453.28,203V183.47h5.37V203Z"/><path class="cls-1" d="M462.73,203V183.47h5.13l7.37,10a13.61,13.61,0,0,1,.7,1.23c.32.61.69,1.36,1.08,2.21q-.17-1.22-.24-2.16c0-.64-.07-1.2-.07-1.68v-9.64h5.11V203H476.7l-7.38-10.08a13.55,13.55,0,0,1-.71-1.24c-.32-.62-.68-1.35-1.06-2.18.11.82.19,1.54.23,2.17s.08,1.2.08,1.69V203Z"/><path class="cls-1" d="M485.78,203V183.47h12v4.27H491v3.39h6.4v4.19H491v3.3h6.77V203Z"/><path class="cls-1" d="M501,203V183.47h12v4.27h-6.78v3.39h6.39v4.19h-6.39v3.3H513V203Z"/><path class="cls-1" d="M516.3,203V183.47h5.56a23.49,23.49,0,0,1,4.56.29,5.87,5.87,0,0,1,2.22,1,5.15,5.15,0,0,1,1.62,2,6.48,6.48,0,0,1,.57,2.73,5.8,5.8,0,0,1-1.12,3.7,5.46,5.46,0,0,1-3.24,1.88l5.32,7.87h-6l-4.49-7.65V203Zm5-10.3h1a4.3,4.3,0,0,0,2.52-.58,2.14,2.14,0,0,0,.8-1.84,2.6,2.6,0,0,0-.74-2.09,4,4,0,0,0-2.49-.62h-1.07Z"/><path class="cls-1" d="M533.73,203V183.47h5.37V203Z"/><path class="cls-1" d="M543.18,203V183.47h5.14l7.37,10a12,12,0,0,1,.69,1.23c.33.61.69,1.36,1.08,2.21-.11-.81-.19-1.53-.22-2.16s-.09-1.2-.09-1.68v-9.64h5.12V203h-5.12l-7.37-10.08a12.92,12.92,0,0,1-.72-1.24c-.32-.62-.67-1.35-1.06-2.18.12.82.19,1.54.24,2.17s.08,1.2.08,1.69V203Z"/><path class="cls-1" d="M574.83,195.81V191.7h10.46c0,.14,0,.29,0,.45v.7c0,3.36-.88,6-2.66,7.82s-4.27,2.79-7.49,2.79a11.47,11.47,0,0,1-4.21-.72,9.34,9.34,0,0,1-3.3-2.17,9.78,9.78,0,0,1-2.16-3.32,10.71,10.71,0,0,1-.76-4,10.5,10.5,0,0,1,.74-4,9.73,9.73,0,0,1,2.23-3.31,9.91,9.91,0,0,1,3.36-2.15,11.26,11.26,0,0,1,4.1-.73,11,11,0,0,1,5.08,1.13,10,10,0,0,1,3.72,3.37l-4.62,2.22a5.66,5.66,0,0,0-1.86-1.69,4.82,4.82,0,0,0-2.32-.56,4.72,4.72,0,0,0-3.76,1.6,6.47,6.47,0,0,0-1.37,4.36,6.55,6.55,0,0,0,1.37,4.38,4.7,4.7,0,0,0,3.76,1.61,5.55,5.55,0,0,0,3.38-1,3.74,3.74,0,0,0,1.58-2.64Z"/><path class="cls-1" d="M212.17,203.1a27.07,27.07,0,0,1-7.75,6.83c-16,9.34-39.86.51-62-20.31,12.52-11.57,24.55-27,34.47-45.3,27-49.68,28.14-101.22,2.54-115.12A28.65,28.65,0,0,0,169.06,26c8.09.23,15.65,1.78,22.09,5.27,28.82,15.67,39.78,77.93,39.29,100.07-.23,10.83.35,31.4-6.86,51.44C218.81,196.61,212.17,203.1,212.17,203.1Z"/><path class="cls-1" d="M161,30.83a27.39,27.39,0,0,1,9.76,3.38c16,9.32,20.14,34.42,13,63.91-16.25-5.16-35.62-8-56.41-7.6C70.8,91.58,25.41,116,26,145.16a28.57,28.57,0,0,0,2.29,10.65C24.48,148.67,22.1,141.32,22,134c-.63-32.79,48.11-73.06,67.59-83.57,9.53-5.12,27.54-15.5,48.11-19.42C152,28.35,161,30.83,161,30.83Z"/><path class="cls-1" d="M35.54,161.13A27.2,27.2,0,0,1,33.61,151c.12-18.54,19.85-34.61,49-43,3.6,16.67,10.78,34.9,21.46,52.73,29,48.52,72.83,75.72,97.83,60.76a28.3,28.3,0,0,0,8.08-7.31c-4.28,6.84-9.5,12.58-15.8,16.33-28.13,16.84-87.29-5.41-106.09-17.09-9.22-5.7-27.16-16.15-40.8-32.07C37.85,170.18,35.54,161.13,35.54,161.13Z"/><path class="cls-1" d="M332.61,121.72v19.86H293.72a95.53,95.53,0,0,1-17-1.14q-20.5-4-29.17-23-5.72-12.66-5.72-31.37,0-22.47,8.74-36.61A37.18,37.18,0,0,1,267.45,34.7Q278,30.05,294.86,30h37.75V49.9H297.56q-15.94,0-23.37,8.5-6.13,7-6.13,25.49,0,24.67,9.56,32.44,6.7,5.4,20.83,5.39Z"/><path class="cls-1" d="M348.77,141.58V30h23.7V141.58Z"/><path class="cls-1" d="M388.25,141.58V121.72h50.9q12.25,0,16.35-2.45a11.48,11.48,0,0,0,5.88-10.54q0-8.08-6.87-11.85-3.92-2.11-12.5-2.12H421.34q-19,0-27.29-6.86A29.63,29.63,0,0,1,385.88,77a33.84,33.84,0,0,1-2.95-14,36.44,36.44,0,0,1,6.87-21.49q6.69-9.39,21.49-10.95,5-.48,14.87-.49h55.32V49.9H431.55q-11.19.08-14.87,1-7.51,1.88-7.51,11.36,0,8,6.29,10.78,4.25,1.89,14.05,1.88H447.4q13.74,0,20.51,2.37,11.85,4,16.26,14.06a42.12,42.12,0,0,1,3.6,17.32,35.8,35.8,0,0,1-4.66,18.22,26.67,26.67,0,0,1-19.69,13.64,125.85,125.85,0,0,1-19.12,1.07Z"/><path class="cls-1" d="M585.59,30V49.9h-31q-12.18,0-17.69,1.67a17.93,17.93,0,0,0-9.19,6.5,19.45,19.45,0,0,0-3.35,6.62,72.73,72.73,0,0,0-1.56,11.44h62.76V96H522.83q1.23,14.46,8.42,20.09t24.43,5.64h29.91v19.86h-31A140.13,140.13,0,0,1,532.48,140q-15-2.46-23.94-13.16-12.68-15.36-12.67-41.67,0-29.18,17.9-45.35a35.33,35.33,0,0,1,13.07-7.64q6.95-2.16,18.63-2.17Z"/><path class="cls-1" d="M575.1,227.36v3.71h-1.77v2.6h6.53v-2.6h-1.77v-3.7l5-7.61h1.66v-2.61h-6.52v2.61h1.65l-3.25,5.12-3.26-5.12H575v-2.61h-6.52v2.61h1.66Zm-9.39-7.6h2.75l3-2.61H557v4.39h3v-1.78h2.75v11.31H561v2.6h6.52v-2.6h-1.76Zm-12.1,0h1.77v-2.61h-6.53v2.61h1.77v11.31h-1.77v2.6h6.53v-2.6h-1.77Zm-15.41,9.33h-3v3.15s2.12,1.78,6.42,1.78c3.51,0,6.1-1.41,6.1-4.86,0-2.87-2-4.47-6-5.35-2.28-.51-3.37-1.12-3.37-2.48s1.11-1.92,2.91-1.92a12.74,12.74,0,0,1,2.69.29v1.84h3v-3.7a15.93,15.93,0,0,0-5.68-1c-4.15,0-5.92,2.08-5.92,4.52s1.65,4.28,5.84,5.19c2.54.55,3.54,1.38,3.54,2.64,0,1.64-1,2.25-3.09,2.25a8.71,8.71,0,0,1-3.44-.62Zm-14.14-9.33h3.72c2.08,0,2.94.78,2.94,2.6s-.86,2.6-2.94,2.6h-3.72Zm1.76,13.91v-2.6h-1.76v-3.5h2.83l3.37,6.1H534v-2.6h-1.78l-2.09-3.73a4.81,4.81,0,0,0,3.65-5c0-3.19-1.86-5.21-6-5.21H519.3v2.61h1.77v11.31H519.3v2.6Zm-22.19,0h14v-4.39h-3v1.79h-6.27v-4.52h6.16V224h-6.16v-4.19h6.16v1.78h3v-4.39h-13.9v2.61h1.77v11.31h-1.77Zm-8.8,0h2.53l5.55-13.91h1.76v-2.61h-6.52v2.61h1.66l-3.72,9.64-3.7-9.64h1.66v-2.61h-6.53v2.61h1.76Zm-10.07-13.91h1.77v-2.61H480v2.61h1.77v11.31H480v2.6h6.52v-2.6h-1.77Zm-23.23,13.91h6.52v-2.6h-1.77v-9.6l7.12,12.2h3.8V219.76H479v-2.61h-6.53v2.61h1.77v9.59l-7.11-12.2h-5.57v2.61h1.77v11.31h-1.77ZM449,226.4v-6.64h1.76v-2.61h-6.52v2.61H446v6.64c0,4.73,2.12,7.62,6.93,7.62s7-2.89,7-7.62v-6.64h1.77v-2.61h-6.53v2.61h1.77v6.64c0,3.08-1,5-4,5s-3.94-1.93-3.94-5m-27.64,7.27h6.52v-2.6h-1.77v-9.6l7.11,12.2h3.81V219.76h1.77v-2.61h-6.53v2.61h1.77v9.59L427,217.15h-5.57v2.61h1.76v11.31h-1.76Zm-9-2.26c-3.66,0-5.4-2.54-5.4-6s1.74-6,5.4-6,5.4,2.55,5.4,6-1.74,6-5.4,6m0,2.61c5.44,0,8.43-3.63,8.43-8.61s-3-8.6-8.43-8.6-8.43,3.64-8.43,8.6,3,8.61,8.43,8.61m-18.9-4.93h-3v3.15S392.64,234,397,234c3.5,0,6.09-1.41,6.09-4.86,0-2.87-2-4.47-6-5.35-2.27-.51-3.37-1.12-3.37-2.48s1.12-1.92,2.91-1.92a12.9,12.9,0,0,1,2.7.29v1.84h3v-3.7a15.93,15.93,0,0,0-5.68-1c-4.15,0-5.92,2.08-5.92,4.52s1.65,4.28,5.84,5.19c2.55.55,3.54,1.38,3.54,2.64,0,1.64-1,2.25-3.08,2.25a8.65,8.65,0,0,1-3.44-.62Zm-6.38-9.33h1.77v-2.61h-6.53v2.61h1.77v11.31h-1.77v2.6h6.53v-2.6h-1.77Zm-16.54,0h3.27c3.42,0,4.8,2.68,4.8,5.65s-1.38,5.66-4.8,5.66h-3.27Zm11.08,5.65c0-4.64-2.48-8.26-7.81-8.26h-8v2.61h1.77v11.31h-1.77v2.6h8c5.33,0,7.81-3.6,7.81-8.26m-23.9-4,2,4.86h-3.91Zm3.88,9.64h-1.71v2.6h6.52v-2.6h-1.72L359,217.15h-5.26v2.61h1.77l-4.69,11.31h-1.73v2.6h6.53v-2.6h-1.73l.87-2.17h6Zm-13.93-11.31h1.77v-2.61h-5.88L339,228.83l-4.64-11.68h-5.89v2.61h1.77v11.31h-1.77v2.6H335v-2.6h-1.77v-9.19l4.69,11.79h2.17l4.69-11.79v9.19H343v2.6h6.52v-2.6h-1.77Zm-35.21,9.33h-3v3.15S311.64,234,316,234c3.5,0,6.09-1.41,6.09-4.86,0-2.87-2-4.47-6-5.35-2.27-.51-3.37-1.12-3.37-2.48s1.12-1.92,2.91-1.92a12.9,12.9,0,0,1,2.7.29v1.84h3v-3.7a15.93,15.93,0,0,0-5.68-1c-4.15,0-5.92,2.08-5.92,4.52s1.65,4.28,5.84,5.19c2.55.55,3.54,1.38,3.54,2.64,0,1.64-1,2.25-3.08,2.25a8.65,8.65,0,0,1-3.44-.62Zm-18.82,4.58h14v-4.39h-3v1.79h-6.27v-4.52h6.16V224h-6.16v-4.19h6.16v1.78h3v-4.39H293.69v2.61h1.77v11.31h-1.77Zm-3.63-13.91h1.77v-2.61H286l-4.65,11.68-4.64-11.68h-5.89v2.61h1.77v11.31h-1.77v2.6h6.53v-2.6h-1.77v-9.19l4.69,11.79h2.17l4.68-11.79v9.19h-1.76v2.6h6.52v-2.6h-1.77Zm-27.35,1.67,2,4.86h-3.92Zm3.88,9.64h-1.71v2.6h6.52v-2.6h-1.72l-5.74-13.92h-5.27v2.61h1.77l-4.69,11.31H254v2.6h6.52v-2.6h-1.72l.87-2.17h6Zm-13.91-2.63v-8.68h1.76v-2.61h-6.52v2.61h1.77v8.68c0,2-.65,3-2.51,3a2.62,2.62,0,0,1-2.59-1.95l-2.74.82c.51,1.89,1.89,3.74,5.44,3.74s5.39-1.88,5.39-5.58"/><path class="cls-1" d="M581.51,231.44a2.26,2.26,0,1,0,2.26-2.26,2.27,2.27,0,0,0-2.26,2.26m.51,0a1.75,1.75,0,1,1,1.75,1.75,1.75,1.75,0,0,1-1.75-1.75m2-.65c.14,0,.22.08.22.25s-.08.25-.22.25h-.57v-.5Zm-.57,1.73v-.78h.35l.4.78h.48l-.44-.85a.61.61,0,0,0,.45-.63.63.63,0,0,0-.67-.7h-1v2.18Z"/></svg>