<?xml version="1.0" encoding="UTF-8"?>
<svg id="Layer_1" data-name="Layer 1" xmlns="http://www.w3.org/2000/svg" width="670.86924" height="150.77617" viewBox="0 0 670.86924 150.77617">
  <defs>
    <style>
      .cls-1 {
        fill: #861f41;
      }

      .cls-2 {
        fill: #e5751f;
      }
    </style>
  </defs>
  <path class="cls-1" d="M148.65006,32.47723c-14.86336,0-28.53155,8.14546-35.60481,21.21856l-8.70932,16.09719-1.01242,1.87145-.9809,1.81297v.00006l-26.30705,48.62169L33.09204,41.8345h19.09946l15.38008,28.595,8.07016,15.00424,8.33149-14.86083,16.11199-28.73841h13.92723c3.36348-3.74668,7.29622-6.89636,11.62552-9.35727h-31.03383l-18.79245,33.51956-18.02901-33.51956H17.47393l58.51549,109.37002,32.57257-60.20211,5.40021-9.9807,1.01242-1.87145,6.26369-11.5763c.34128-.63086.70267-1.24682,1.08278-1.84729,4.18036-6.60554,10.64508-11.33946,18.03815-13.39453,2.01617-.56044,4.10178-.92173,6.22851-1.06726.70906-.04855,1.42269-.0731,2.13998-.0731h85.27027l-8.60972,16.04671h-39.45714l-2.64025,4.96077-36.50805,68.59452h-19.35942l32.01838-59.46484,7.42734-13.79363h-38.42233c-2.193,3.4685-5.33533,9.35727-5.33533,9.35727h28.09204l-39.44527,73.25847h40.64409l39.1483-73.55529h39.43521l18.65127-34.76124h-100.98706Z"/>
  <g>
    <path class="cls-2" d="M117.30487,9.91527v-2.73949h11.97545v2.73949h-4.55825v12.78714h-2.84779v-12.78714h-4.56941Z"/>
    <path class="cls-2" d="M141.62445,22.70241h-9.96131V7.18657h9.96131v2.71753h-7.12468v3.61668h5.78192v2.71753h-5.78192v3.74656h7.12468v2.71753Z"/>
    <path class="cls-2" d="M146.33633,14.93909c0,.70004.13547,1.35877.40566,1.97581.27093.61742.63863,1.15519,1.10458,1.61333.46595.4585,1.00707.82136,1.62412,1.0882.61705.26721,1.27577.40082,1.97618.40082.54112,0,1.05173-.08113,1.53182-.24377.48009-.16226.92594-.38444,1.33755-.6658.15854-.10086.32974-.1805.51433-.23818.18385-.05769.37663-.08671.57909-.08671.32453,0,.60067.05247.82843.15705.22702.10458.43841.25084.63342.43841l.66022.66059c-.40417.4332-.84109.82285-1.31001,1.16934-.46967.34648-.96167.64272-1.47823.88798-.51582.24526-1.05024.4332-1.60253.56308s-1.11649.19464-1.69408.19464c-1.09714,0-2.12803-.20729-3.09118-.62263-.9639-.41496-1.80648-.9799-2.52847-1.69446s-1.29066-1.55192-1.70525-2.51173c-.41533-.96018-.623-1.98884-.623-3.08597,0-.72907.09378-1.43097.2821-2.10607.18757-.67473.45478-1.3048.80089-1.88947.34686-.58467.76144-1.11872,1.24526-1.60216.48381-.48381,1.01973-.89691,1.60774-1.24005.58876-.34276,1.22144-.60774,1.90026-.79568.67882-.18757,1.38221-.28135,2.11165-.28135.5776,0,1.14179.06476,1.69408.19464s1.08671.31783,1.60253.56308c.51656.24563,1.00856.5415,1.47823.88798.46892.34648.90584.73614,1.31001,1.16934l-.66022.66059c-.18831.18757-.40268.33718-.64459.4492s-.51433.16785-.81727.16785c-.39747,0-.76144-.11537-1.09341-.34648-.41906-.28173-.86863-.50168-1.34797-.66059-.48009-.15854-.98772-.23818-1.5214-.23818-.70041,0-1.35914.13361-1.97618.40082-.61705.26684-1.15817.6297-1.62412,1.08783-.46595.4585-.83364.99479-1.10458,1.60811-.27019.6137-.40566,1.27056-.40566,1.9706Z"/>
    <path class="cls-2" d="M173.96296,22.70241h-2.84704v-6.43171h-7.62264v6.43171h-2.83737V7.18657h2.83737v6.36659h7.62264v-6.36659h2.84704v15.51583Z"/>
    <path class="cls-2" d="M13.74974,17.99232s1.39859-3.21176,2.09528-4.80722c.69669-1.59546,1.39859-3.19762,2.1057-4.8076.15929-.36807.4064-.65836.74209-.8716.33569-.21288.70562-.31932,1.10979-.31932h1.7648l-6.76741,15.51583h-2.57685L5.45572,7.18657h1.75437c.19501,0,.38779.02903.57909.08671s.36993.14068.53591.24898.31411.23446.44436.37886c.12951.1444.23074.30331.30294.47637l4.19055,9.60403.24558.56284.2412-.55205Z"/>
    <path class="cls-2" d="M26.79727,22.70241h-2.84704V7.18657h2.84704v15.51583Z"/>
    <path class="cls-2" d="M58.68602,14.3976v6.50726c-.39003.39003-.81206.7112-1.26684.9639s-.93115.45292-1.4291.60067c-.4987.14812-1.01675.24935-1.55415.30331-.5374.05434-1.08076.08113-1.62933.08113-1.09714,0-2.12579-.20729-3.08597-.62263-.96018-.41496-1.80127-.9799-2.52252-1.69446-.722-.71455-1.29066-1.55192-1.70599-2.51173-.41459-.96018-.62226-1.98884-.62226-3.08597,0-.72907.09378-1.43097.28135-2.10607.18757-.67473.45478-1.3048.80164-1.88947.34611-.58467.76144-1.11872,1.24526-1.60216.48307-.48381,1.01898-.89691,1.60774-1.24005.58802-.34276,1.21995-.60774,1.89431-.79568.6751-.18757,1.377-.28135,2.10644-.28135.5776,0,1.14403.06476,1.70004.19464.55527.12988,1.08969.31783,1.60253.56308.5121.24563,1.00261.5415,1.47228.88798.46892.34648.90584.73614,1.31001,1.16934l-.6498.66059c-.20171.20916-.42054.36435-.65501.46558-.23446.10086-.50316.15147-.8061.15147-.40491,0-.77261-.11537-1.10458-.34648-.41161-.28173-.85746-.50168-1.33755-.66059-.48009-.15854-.9907-.23818-1.53182-.23818-.69297,0-1.35021.13361-1.97097.40082-.62077.26684-1.16189.6297-1.62412,1.08783-.46148.4585-.82843.99479-1.09862,1.60811-.27093.6137-.4064,1.27056-.4064,1.9706,0,.71455.14068,1.38035.42278,1.99777.28135.61705.66022,1.15482,1.13658,1.61333s1.03015.81727,1.66208,1.07704c.63119.26014,1.29364.39003,1.9866.39003.33941-.00707.68255-.0361,1.02866-.08671.29624-.04317.61332-.11165.95274-.20581.33941-.09378.6498-.22739.93115-.40045v-2.1872c-.30294-.00707-.60067-.01265-.89319-.01638-.29178-.00335-.55229-.05955-.77931-.16785-.22776-.1083-.41012-.29029-.54708-.54671-.13696-.25605-.20543-.63677-.20543-1.14217v-.86639h5.28397Z"/>
    <path class="cls-2" d="M66.11737,22.70241h-2.84779V7.18657h2.84779v15.51583Z"/>
    <path class="cls-2" d="M73.64026,11.09477v11.60764h-2.83662V7.18657h2.50093c.34686,0,.65128.05061.91478.15147.26349.10123.47116.25642.623.46558,1.08299,1.53778,6.89692,9.75709,6.89692,9.75709V7.18657h2.83662v15.51583h-2.63045l-8.30518-11.60764Z"/>
    <path class="cls-2" d="M92.10921,22.70241h-2.84704V7.18657h2.84704v15.51583Z"/>
    <path class="cls-2" d="M103.8363,7.18657h-2.56643l-6.77783,15.51583h1.7648c.19501,0,.38779-.02866.57909-.08671.19129-.05769.36993-.13882.53666-.24339.16598-.10458.31336-.22925.44362-.37365s.23074-.30331.30294-.47637l.90957-2.10049h.00242l1.64012-3.77745h.01442l1.86742-4.33439,2.2687,5.26405h-1.28843c-.96438,0-1.8368.57232-2.22086,1.45692l-.60387,1.39086h5.36884l.92073,2.10049c.16598.36807.41459.65687.74656.86602.33197.20953.70041.31411,1.10458.31411h1.7648l-6.77783-15.51583Z"/>
    <path class="cls-2" d="M34.31964,22.70047h-2.8361V7.1875h5.82402c.75014,0,1.43033.14065,2.04056.42233.60949.2813,1.13117.65489,1.56428,1.12038.43312.46549.768.99424,1.00614,1.58587.23814.592.35721,1.20149.35721,1.82959,0,.4547-.06102.89861-.18307,1.33135-.12354.43312-.30363.84093-.54177,1.22345s-.53061.73451-.87665,1.05526c-.34679.32149-.74344.59386-1.1907.81749.75758,1.03219,1.51145,2.05508,2.26233,3.06903.75014,1.01396,1.50773,2.03349,2.27275,3.05824h-2.21917c-.15107,0-.32819-.03237-.52986-.09749-.20242-.06474-.41377-.16781-.6333-.30847-.22028-.14065-.44726-.32298-.68242-.54661-.23442-.22363-.46363-.49823-.68763-.8227l-2.82494-3.81062h-2.12168v5.58588ZM37.39388,14.26733c.27386,0,.53582-.05767.78437-.17302.25005-.11535.46586-.27088.65042-.46549.18381-.19498.32968-.42047.43758-.67684.10865-.256.16298-.5213.16298-.79554,0-.28168-.05433-.55033-.16298-.8067-.10791-.256-.25377-.48149-.43758-.67647-.18456-.19498-.40037-.34977-.65042-.46549-.24856-.11535-.51051-.17302-.78437-.17302h-3.07424v4.23257h3.07424Z"/>
  </g>
  <g>
    <path class="cls-2" d="M268.66349,32.47716l-26.31738,49.32733h292.02295l26.47052-49.32733h-292.17609ZM287.36295,71.0183h-3.78809v-27.75391h3.78809v27.75391ZM311.63004,71.0183h-3.0332l-10.68408-19.20801-.16016-.3877.00049,19.5957h-3.56299v-27.75391h3.0332l10.68408,19.16992.16455.39746-.00439-.08398-.00049-19.4834h3.56299v27.75391ZM333.83805,64.49193c0,4.5791-2.51123,6.90137-7.46387,6.90137h-1.9502c-4.69434,0-6.97607-1.91406-6.97607-5.85059v-3.48828h3.67529v2.8125c0,2.50098.78857,3.26367,3.37549,3.26367h1.72559c2.69727,0,3.90039-.51465,3.90039-3.56348v-2.1377c0-2.10938-.95752-3.17676-3.30469-3.68457l-3.6748-.78711c-3.34717-.72266-5.28467-2.05762-5.28467-6.74219v-1.76367c0-4.23242,2.49072-6.56348,7.01367-6.56348h.8623c4.55615,0,7.27637,2.1875,7.27637,5.85156v3.33789h-3.63818v-2.77539c0-2.12012-1.18994-3.15039-3.63818-3.15039h-.75c-2.54785,0-3.45068.92285-3.45068,3.52539v1.35059c0,2.53613.39502,3.03711,2.81885,3.57129l3.48584.75c4.31738.97559,5.99756,2.97168,5.99756,7.11719v2.02539ZM353.5695,46.60228h-6.56348v24.41602h-3.78809v-24.41602h-6.63867v-3.33789h16.99023v3.33789ZM361.74869,71.0183h-3.78809v-27.75391h3.78809v27.75391ZM383.09049,46.60228h-6.56348v24.41602h-3.78809v-24.41602h-6.63867v-3.33789h16.99023v3.33789ZM404.35953,64.71752c0,4.11816-3.26221,6.67578-8.51367,6.67578s-8.51367-2.55762-8.51367-6.67578v-21.45312h3.7876v20.62793c0,2.76367,1.50195,4.05078,4.72607,4.05078s4.72559-1.28711,4.72559-4.05078v-20.62793h3.78809v21.45312ZM425.59196,46.60228h-6.56348v24.41602h-3.78809v-24.41602h-6.63867v-3.33789h16.99023v3.33789ZM444.30973,46.60228h-10.53857v8.40137h8.06396v3.33789h-8.06396v9.37598h10.53857v3.30078h-14.32666v-27.75391h14.32666v3.33789ZM473.11832,46.60228h-10.53906v9.52637h8.06348v3.33789h-8.06348v11.55176h-3.78809v-27.75391h14.32715v3.33789ZM494.68766,64.79271c0,4.19434-3.18506,6.60059-8.73828,6.60059-5.49561,0-8.77637-2.46777-8.77637-6.60059v-15.30273c0-4.13379,3.28076-6.60156,8.77637-6.60156,5.55322,0,8.73828,2.40625,8.73828,6.60156v15.30273ZM513.8278,71.0183l-6.07617-10.57715h-2.74561v10.57715h-3.78809v-27.75391h6.26367c5.87988,0,8.73828,2.52734,8.73828,7.72559v2.21289c0,3.59277-1.54395,5.80859-4.71533,6.75879l6.53564,11.05664h-4.2124Z"/>
    <path class="cls-2" d="M512.4318,51.14037c0-3.13867-1.46875-4.53809-4.7627-4.53809h-2.66309v10.53906h2.5127c3.44385,0,4.91309-1.26758,4.91309-4.23828v-1.7627Z"/>
    <path class="cls-2" d="M485.94938,46.22631c-3.54297,0-4.98828,1.18457-4.98828,4.08887v13.65234c0,2.90332,1.44531,4.08789,4.98828,4.08789,3.51611,0,4.9502-1.18457,4.9502-4.08789v-13.65234c0-2.9043-1.43408-4.08887-4.9502-4.08887Z"/>
  </g>
  <g>
    <path class="cls-1" d="M405.70475,105.66112h-2.77539v21.07812h3.0376c4.08887,0,6.07617-1.86523,6.07617-5.70117v-9.67676c0-4.04883-1.83643-5.7002-6.33838-5.7002Z"/>
    <polygon class="cls-1" points="315.15202 120.25096 321.8278 120.25096 318.48991 107.71776 315.15202 120.25096"/>
    <path class="cls-1" d="M513.10172,105.66112h-2.8877v10.53906h2.7373c3.44434,0,4.91406-1.26758,4.91406-4.23828v-1.7627c0-3.13867-1.46924-4.53809-4.76367-4.53809Z"/>
    <polygon class="cls-1" points="250.81803 120.25096 257.49381 120.25096 254.15592 107.71776 250.81803 120.25096"/>
    <path class="cls-1" d="M237.1226,91.60845l-26.32941,49.18256h426.5874l26.34113-49.18256H237.1226ZM260.13151,130.07714l-1.7251-6.41309h-8.50146l-1.7251,6.41309h-3.8208l7.8252-27.75488h3.98096l7.78662,27.75488h-3.82031ZM284.95133,121.11327c0,6.11523-3.09863,8.96387-9.75195,8.96387h-6.82568v-27.75488h6.56348c6.83203,0,10.01416,2.84863,10.01416,8.96484v9.82617ZM300.20866,130.07714h-3.83838l-7.43994-27.75488h3.85645l5.48486,21.65723,5.521-21.65723h3.85547l-7.43945,27.75488ZM324.46549,130.07714l-1.7251-6.41309h-8.50146l-1.7251,6.41309h-3.8208l7.8252-27.75488h3.98096l7.78662,27.75488h-3.82031ZM350.14762,130.07714h-3.0332l-10.68408-19.20801-.16016-.3877.00049,19.5957h-3.56299v-27.75488h3.0332l10.68408,19.1709.16455.39746-.00439-.08398-.00049-19.48438h3.56299v27.75488ZM373.33024,112.82421h-3.60059v-4.08789c0-3.00293-2.91406-3.45117-4.65088-3.45117-4.13525,0-4.61328,1.96973-4.61328,3.45117v14.92773c0,2.4502,1.33643,3.4502,4.61328,3.4502,3.12939,0,4.65088-1.12891,4.65088-3.4502v-4.08887h3.60059v4.65137c0,3.83984-3.20459,6.22559-8.36377,6.22559-5.19043,0-8.28906-2.32715-8.28906-6.22559v-16.05273c0-3.84082,3.21924-6.22656,8.40137-6.22656,5.16699,0,8.25146,2.32812,8.25146,6.22656v4.65039ZM393.92496,105.66112h-10.53906v8.40137h8.06348v3.33789h-8.06348v9.37598h10.53906v3.30078h-14.32715v-27.75488h14.32715v3.33887ZM415.71891,121.11327c0,6.11523-3.09863,8.96387-9.75195,8.96387h-6.82568v-27.75488h6.56348c6.83203,0,10.01416,2.84863,10.01416,8.96484v9.82617ZM447.71598,112.82421h-3.60059v-4.08789c0-3.00293-2.91357-3.45117-4.65039-3.45117-4.13525,0-4.61328,1.96973-4.61328,3.45117v14.92773c0,2.4502,1.33643,3.4502,4.61328,3.4502,3.12939,0,4.65039-1.12891,4.65039-3.4502v-4.08887h3.60059v4.65137c0,3.83984-3.20459,6.22559-8.36328,6.22559-5.19043,0-8.28906-2.32715-8.28906-6.22559v-16.05273c0-3.84082,3.21924-6.22656,8.40137-6.22656,5.1665,0,8.25098,2.32812,8.25098,6.22656v4.65039ZM471.1984,123.85155c0,4.19434-3.18506,6.60059-8.73828,6.60059-5.49561,0-8.77637-2.46777-8.77637-6.60059v-15.30273c0-4.13379,3.28076-6.60156,8.77637-6.60156,5.55322,0,8.73828,2.40625,8.73828,6.60156v15.30273ZM499.59489,130.07714h-3.63867l.03906-20.71387-6.03906,11.375h-2.58936l-6.04053-11.44336.03906.61816.00098,20.16406h-3.6377v-27.75488h3.75146l7.16357,13.59961,7.19922-13.59961h3.75195v27.75488ZM521.65348,112.26171c0,4.87109-2.8584,7.23828-8.73926,7.23828h-2.7002v10.57715h-3.78809v-27.75488h6.48828c5.88086,0,8.73926,2.52734,8.73926,7.72656v2.21289ZM543.93473,123.77636c0,4.11816-3.2627,6.67578-8.51465,6.67578-5.25146,0-8.51367-2.55762-8.51367-6.67578v-21.4541h3.78809v20.62891c0,2.76367,1.50146,4.05078,4.72559,4.05078,3.22461,0,4.72656-1.28711,4.72656-4.05078v-20.62891h3.78809v21.4541ZM565.16715,105.66112h-6.56348v24.41602h-3.78809v-24.41602h-6.63867v-3.33887h16.99023v3.33887ZM573.34684,130.07714h-3.78809v-27.75488h3.78809v27.75488ZM597.61442,130.07714h-3.03418l-10.68311-19.20801-.16113-.38965.00049,19.59766h-3.5625v-27.75488h3.03271l10.68457,19.1709.16455.39746-.00439-.08398-.00049-19.48438h3.56348v27.75488ZM621.05973,112.82421h-3.67578v-4.08789c0-3.00293-2.96094-3.45117-4.72559-3.45117-4.23584,0-4.72559,1.96973-4.72559,3.45117v14.74023c0,2.51562,1.45752,3.6377,4.72559,3.6377,2.15576,0,4.72559-.63086,4.72559-3.6377v-4.08887h-5.10059v-3.33789h8.77637v14.02734h-2.2334l-.66162-1.5127c-1.32959,1.2373-3.33545,1.8877-5.84424,1.8877-5.11963,0-8.17578-2.32715-8.17578-6.22559v-16.05273c0-3.84082,3.26221-6.22656,8.51367-6.22656,5.18213,0,8.40137,2.38574,8.40137,6.22656v4.65039Z"/>
    <path class="cls-1" d="M462.46012,105.28514c-3.54297,0-4.98828,1.18457-4.98828,4.08887v13.65234c0,2.90332,1.44531,4.08789,4.98828,4.08789,3.51611,0,4.9502-1.18457,4.9502-4.08789v-13.65234c0-2.9043-1.43408-4.08887-4.9502-4.08887Z"/>
    <path class="cls-1" d="M274.93717,105.66112h-2.77539v21.07812h3.0376c4.08887,0,6.07617-1.86523,6.07617-5.70117v-9.67676c0-4.04883-1.83643-5.7002-6.33838-5.7002Z"/>
  </g>
  <g>
    <path class="cls-1" d="M159.64998,138.58352c.31885-.11914.49951-.38281.49951-.73633,0-.5-.34863-.79883-.93262-.79883h-.84961c-.12354,0-.14941.07031-.14941.12988v2.31641c0,.12891.1084.12891.14941.12891h.2876c.03516,0,.14258,0,.14258-.12891v-.8418h.25928l.59521.88281c.04639.05273.09521.08789.18115.08789h.27393c.02734,0,.09912,0,.1333-.05273.03271-.05176.00537-.11035-.0083-.13867l-.58203-.84863ZM158.79744,137.54934h.40625c.27393,0,.38574.08594.38574.29785,0,.13184-.03906.30664-.37891.30664h-.41309v-.60449Z"/>
    <path class="cls-1" d="M159.17049,135.84426c-1.37402,0-2.4917,1.11816-2.4917,2.49219s1.11768,2.49121,2.4917,2.49121c1.37354,0,2.49121-1.11719,2.49121-2.49121s-1.11768-2.49219-2.49121-2.49219ZM161.28231,138.33645c0,1.16895-.94727,2.11914-2.11182,2.11914-1.16846,0-2.11914-.9502-2.11914-2.11914,0-1.16504.95068-2.1123,2.11914-2.1123,1.16455,0,2.11182.94727,2.11182,2.1123Z"/>
  </g>
</svg>